PathFileType	4	(X/Y/Z)	regression/subject01/trials/walk2/markers.trc
DataRate	CameraRate	NumFrames	NumMarkers	Units	OrigDataRate	OrigDataStartFrame	OrigNumFrames
200.00000000000426	200.00000000000426	4	64	m	200.00000000000426	27	223
Frame#	Time	CLAV			C7			RACR			RASH			RPSH			RLEL			RMEL			RUA1			RUA2			RUA3			RFAsuperior			RFAradius			RFAulna			RASI			RPSI			RCAL			RTOE			RMT5			RTH1			RTH2			RTH3			RTB1			RTB2			RTB3			RLFC			RMFC			RLMAL			RMMAL			RHJC			RKJC			REJC			RAJC			RSJC			LACR			LASH			LPSH			LLEL			LMEL			LUA1			LUA2			LUA3			LFAsuperior			LFAradius			LFAulna			LASI			LPSI			LCAL			LTOE			LMT5			LTH1			LTH2			LTH3			LTB1			LTB2			LTB3			LLFC			LMFC			LLMAL			LMMAL			LHJC			LKJC			LEJC			LAJC			LSJC			
		X1	Y1	Z1	X2	Y2	Z2	X3	Y3	Z3	X4	Y4	Z4	X5	Y5	Z5	X6	Y6	Z6	X7	Y7	Z7	X8	Y8	Z8	X9	Y9	Z9	X10	Y10	Z10	X11	Y11	Z11	X12	Y12	Z12	X13	Y13	Z13	X14	Y14	Z14	X15	Y15	Z15	X16	Y16	Z16	X17	Y17	Z17	X18	Y18	Z18	X19	Y19	Z19	X20	Y20	Z20	X21	Y21	Z21	X22	Y22	Z22	X23	Y23	Z23	X24	Y24	Z24	X25	Y25	Z25	X26	Y26	Z26	X27	Y27	Z27	X28	Y28	Z28	X29	Y29	Z29	X30	Y30	Z30	X31	Y31	Z31	X32	Y32	Z32	X33	Y33	Z33	X34	Y34	Z34	X35	Y35	Z35	X36	Y36	Z36	X37	Y37	Z37	X38	Y38	Z38	X39	Y39	Z39	X40	Y40	Z40	X41	Y41	Z41	X42	Y42	Z42	X43	Y43	Z43	X44	Y44	Z44	X45	Y45	Z45	X46	Y46	Z46	X47	Y47	Z47	X48	Y48	Z48	X49	Y49	Z49	X50	Y50	Z50	X51	Y51	Z51	X52	Y52	Z52	X53	Y53	Z53	X54	Y54	Z54	X55	Y55	Z55	X56	Y56	Z56	X57	Y57	Z57	X58	Y58	Z58	X59	Y59	Z59	X60	Y60	Z60	X61	Y61	Z61	X62	Y62	Z62	X63	Y63	Z63	X64	Y64	Z64	

28	3.515	1.160402731594834	1.442540378501323	-0.4949558071383695	1.048963582093434	1.519628621362199	-0.4851992329986372	1.134692836304008	1.48604359664219	-0.3420122771296322	1.178385083365739	1.422143214130088	-0.3016803180988539	1.080662147312332	1.441844861353626	-0.2956695183333484	0.9706431327201351	1.133474676923091	-0.2462033633398961	0.973331265297216	1.120975312269651	-0.3347979539841439	1.098253207612849	1.381607058451036	-0.2775692848165904	1.008293220305706	1.223143491956639	-0.2729428924235168	1.079665500184765	1.28067173749319	-0.2660639225944973	0.9927282793821149	1.036140881679432	-0.2842136004040924	1.021137369468856	0.8681069690650387	-0.2625103621279606	0.9593774477911914	0.8615313835207341	-0.2683459155630617	1.157591670772688	1.005598648660831	-0.3839829444855488	0.9924862652102958	1.041684239641322	-0.4576569042026914	1.17466458361083	0.03938710918873457	-0.4416179347831218	1.428512646478966	0.05844765965073162	-0.46346228804634	1.3615522786246	0.01850862385682173	-0.3711187497817475	1.15663102647074	0.7761480164187935	-0.3551449432017026	1.266036414304301	0.7361227350944733	-0.4152301229702307	1.211186014562257	0.6339814807091486	-0.3579980987507951	1.254270495077134	0.3417152882516175	-0.3772990509597413	1.300510122084539	0.2550695367113477	-0.4418546818452066	1.271945100367639	0.1738103596390675	-0.3760402321333263	1.244561493827482	0.5332195863290841	-0.3685955156998871	1.253124005217947	0.5351400781297131	-0.4820249825437891	1.253168459500465	0.06048553773682058	-0.3818398500033528	1.263965287975449	0.0638993431621912	-0.4859010711717132	1.078309359185556	0.9060061947378047	-0.4318879457074023	1.252999218658293	0.5328248728454796	-0.427468084450275	0.9758915157944847	1.120286057620061	-0.2955518928157948	1.245766768287164	0.04877376549083012	-0.4425438120602169	1.132606773971521	1.431372450771954	-0.2988645589487028	1.119603753713952	1.501826150515077	-0.6390595639131986	1.158653206132589	1.442781938425401	-0.6901267700465945	1.05311243519491	1.464059717426823	-0.6836351062998485	1.045386890270473	1.126501649646595	-0.7723840625512557	1.038358532484221	1.109305192915668	-0.6848206911785878	1.096468832542279	1.396570148494412	-0.7150127098500806	1.053534747110239	1.220891187377221	-0.7377826825751171	1.107260702530659	1.295249264696581	-0.7318480682584216	1.113152457375551	1.056716401217285	-0.7273807570536035	1.242389191172077	0.9438867926358463	-0.7363723533909446	1.198046600316411	0.9004960340433368	-0.7428958984202294	1.137529392792614	1.00785843767627	-0.6487012250634826	0.985458595909143	1.042475827212118	-0.5503857825344187	0.5951500135537773	0.2197311516983139	-0.5725315582409589	0.7767004439685746	0.0402651699360627	-0.5620091069285933	0.6893257213711944	0.05727741394941875	-0.643754980874771	1.046638960519636	0.7635768089670716	-0.6795660372955182	1.122643574717519	0.6647048093913652	-0.6391999973553456	1.012491437491571	0.6152697988878144	-0.6854557342600082	0.8568426997412892	0.3697334697191297	-0.6603623768332475	0.8343905493507708	0.2737162913604563	-0.5964122302527841	0.7472062935118235	0.2415927536279797	-0.6522471653059201	0.985228756653228	0.5122698163287112	-0.6802656429730755	1.010025323161325	0.4986931402762675	-0.5700655840105843	0.6533478739564759	0.1770651872146797	-0.6362626940848058	0.6774950171150735	0.1668289475110286	-0.5349261350468232	1.066243631847621	0.9073652626426867	-0.5910931265942747	1.001115475441751	0.4996928423590309	-0.6237925936308053	1.04670143403355	1.111893100282738	-0.7231740551784894	0.6482532463154305	0.1716100821361334	-0.5744467717901306	1.112874896738371	1.452011175067268	-0.6873110108964434	
29	3.52	1.166701151445262	1.443145980362685	-0.4946193660684688	1.055107734445462	1.519975821096947	-0.4845915635687381	1.141294569823621	1.486637467041373	-0.3416218227130572	1.185243274712843	1.422852543687013	-0.3013858543638889	1.087490663863134	1.44232691777821	-0.2951222552498405	0.9791713596152193	1.133393693875348	-0.2445263658727351	0.9816151611420565	1.120697956057978	-0.3331001076943579	1.105422273659941	1.38208867486001	-0.2769199476883738	1.016277031960446	1.223186785496007	-0.2716076818922387	1.087382477743601	1.281088851776872	-0.2651124608842935	1.001903714218858	1.03614191939375	-0.2823827167833222	1.031805679167479	0.868405643266415	-0.260384605435421	0.9700834423505355	0.8612956746242881	-0.2659876191777467	1.164818640759153	1.006706008464731	-0.3828441961963343	0.9996577438196415	1.042162997614712	-0.4566987641342114	1.17500655599041	0.03967532776700595	-0.4414262738080222	1.428915032745853	0.05769277644578147	-0.4634529928134978	1.36186099007042	0.0179314607063881	-0.3711007343997647	1.163481255999441	0.7764285607619644	-0.3537786605496054	1.272621418263168	0.7359336223460483	-0.4140312605238603	1.217334524525634	0.6339992757892212	-0.3568503618914416	1.25795076579942	0.3414801883419426	-0.3766569464311992	1.303108602105802	0.2544573739571581	-0.4414706675206404	1.273820238426587	0.1733928610556577	-0.3757341280919078	1.250203105006981	0.5330866413577769	-0.3675967031517275	1.258647746272519	0.5350910445157872	-0.4810335544851304	1.253812013952702	0.06028711773870044	-0.3816902049039016	1.264408695461694	0.06377028680977448	-0.4857696995119666	1.085711942468166	0.9067546591899565	-0.4302898389333207	1.258622316282239	0.5326816206697204	-0.4264864826973656	0.9843148930815137	1.120114623726183	-0.293861677008915	1.246146927818289	0.04876400168493694	-0.4423975842108996	1.139451064160297	1.431975314230034	-0.2984516713589129	1.125381600292703	1.502290065962861	-0.6386329901013383	1.164434006864719	1.443321326892035	-0.6897850732562564	1.058861187147033	1.464353650910528	-0.6830203862130841	1.050603449431435	1.126806805711639	-0.7709915098546503	1.043647000051665	1.10985107005311	-0.6833754680373965	1.102127513442505	1.396953403972843	-0.7143883537357718	1.058921803891796	1.221275640410052	-0.7366480657913176	1.112758608987691	1.295573419692071	-0.7309682765008605	1.117435841374153	1.056022362049137	-0.7260792275173287	1.244736419882301	0.9410345716299735	-0.7353460233895852	1.199656769238446	0.8983981661273189	-0.7417913285349467	1.144775335963518	1.007695203360137	-0.647571711091575	0.9926367206862843	1.042509505354571	-0.5494308771797793	0.604102663067281	0.228136400862052	-0.5733557510878292	0.7782288766375469	0.04149770678542246	-0.5621584747957858	0.6914910823505706	0.06163232221115975	-0.6438732152435859	1.056039124632369	0.7641789197861801	-0.679381998273302	1.133483128288522	0.6660096053067013	-0.6400500411359529	1.02401149176559	0.6154640707053725	-0.6867192657318335	0.867425500535117	0.3716576482730183	-0.6620741121029198	0.8432651565118983	0.2762318826847231	-0.5978618088943448	0.7552898019672938	0.2457376762353159	-0.6533685335392095	0.9982290462686252	0.5120381340652659	-0.682532577834666	1.023307458291207	0.4977265280928665	-0.5724894043822596	0.6602169419606957	0.1831200543162076	-0.6369704304711543	0.6844650854212244	0.1726055352852056	-0.5356864941736581	1.073657625861873	0.9073495744784346	-0.5895005734644446	1.014363084937683	0.4987954954315141	-0.6262030165162533	1.051951453350433	1.112326153640747	-0.7217446199377716	0.6552036106508103	0.1778890828762892	-0.5751284940660555	1.118641796312172	1.452444097435057	-0.6868508902512804	
30	3.525	1.172967103257434	1.443784353925895	-0.494311354943824	1.061217750165544	1.520348273835783	-0.4839904916323982	1.147884307089412	1.487254075933083	-0.3412542130620357	1.192098713573571	1.423585368691334	-0.3011254174761366	1.094317466299683	1.442826293850076	-0.294593087980582	0.9876684587392042	1.133364020343701	-0.2428811856905393	0.9898627600076645	1.120473141644482	-0.3314332717936838	1.112585014784844	1.382596870686787	-0.2762978184127758	1.024238373759459	1.223273853746623	-0.2703018179444789	1.095081779614164	1.281537953745907	-0.2641921457981269	1.011063423421675	1.036204984151214	-0.2805893849151507	1.042493395444574	0.8687854396910408	-0.2583103424959498	0.9808159997908361	0.8611285450325	-0.2636816332473327	1.172054328570785	1.007850187579878	-0.3817597191556435	1.00682185305716	1.04270742329056	-0.4557395766641955	1.175324905031692	0.03996181226659701	-0.4412279112974131	1.429281631730695	0.05707180408804017	-0.4634213454504629	1.362150091397609	0.01744016837553907	-0.3710696467881084	1.170226697159991	0.7767209939573421	-0.3524089275992014	1.279080197834109	0.735712111773158	-0.4128322495280116	1.223311276212283	0.6340085178650866	-0.3557085840044786	1.261470689479124	0.3412517386676148	-0.3760177088943113	1.305588602464114	0.2538800941019859	-0.4410778681665474	1.275600076819093	0.1730077344363661	-0.3754203789761948	1.255625685051197	0.5329337162764438	-0.3666104501953491	1.263953534557373	0.5350265696259349	-0.4800543382017992	1.254408867013129	0.06012588515715522	-0.3815305180199703	1.264822686473263	0.06368215360663804	-0.4856259965126401	1.093072079139476	0.9075526572879271	-0.428679231548471	1.264018226709539	0.5325232933898385	-0.4255164340996024	0.9927033567674917	1.119994843050134	-0.292203365952435	1.246497487278171	0.04878952614479753	-0.4422414617318945	1.146293088288118	1.432598780081947	-0.2980653477239441	1.131102545679772	1.502791804128525	-0.6382235910998275	1.170153333268657	1.443903936331528	-0.6894699887563259	1.064549586212858	1.464684135502969	-0.682415072901127	1.055862976698882	1.127127579034709	-0.7695926965122729	1.048964525528822	1.110421312384111	-0.681924161852046	1.107745707843624	1.397369935217887	-0.713779775602662	1.064319613234031	1.22168109979616	-0.7355171200613636	1.118246289104541	1.295932540647261	-0.7300895279019168	1.121733880972703	1.055362267337639	-0.7247491667506253	1.247053298361724	0.9382370330037302	-0.734247895467252	1.201246974956247	0.8963699115194417	-0.740612234354232	1.151929023065714	1.007484828693564	-0.6464826088110216	0.9997721056747948	1.042579440743822	-0.5484700695220546	0.613586405808789	0.2365267047566255	-0.5742438188969008	0.7799330799301906	0.0429644019093501	-0.562338429339402	0.6939710794790171	0.0662334808425116	-0.6440405158892465	1.065433551940922	0.7648246157446791	-0.6791941786235163	1.14434499624201	0.6674265501121617	-0.640874580122496	1.035613155910081	0.6157316870377763	-0.6880119837980924	0.8782463473525663	0.3736729699807215	-0.6638429243988766	0.8524430305446419	0.2788506769120366	-0.5993763406233357	0.7637159944392318	0.2499698835733339	-0.6545485161750134	1.011370626558332	0.5118976090096492	-0.6848542580478089	1.036711684642359	0.4968575835466685	-0.5749685117118311	0.667498368548946	0.1892397508104857	-0.6377338644833195	0.6918603740498861	0.1784397874493169	-0.5365073027368069	1.080968446189219	0.9073329254754615	-0.5878871843973197	1.02773748994349	0.4979986946766344	-0.6286728539633172	1.05723791715446	1.112781147630242	-0.7203072827456264	0.6625814711941195	0.1842190602241527	-0.5758667614494889	1.124347707983204	1.452917347722141	-0.6864099190041334	
31	3.53	1.179194021472975	1.444439063568725	-0.4940318121776752	1.067293438659498	1.520738374344284	-0.4833947679878814	1.154461098351653	1.487879595691384	-0.3409094599269812	1.198945903662848	1.424324559131599	-0.3008994901436098	1.101138822168056	1.443333584826072	-0.2940812352599915	0.9961331577366692	1.133369114505419	-0.2412704075977536	0.9980708156024343	1.120286184805972	-0.3298003126998605	1.119737613677556	1.383117308249635	-0.2757030839386138	1.03217468418916	1.223389208922031	-0.26902682798177	1.102760628825567	1.282004097443143	-0.2633048651191986	1.020203833453781	1.036314511644998	-0.2788391735054458	1.053194525266117	0.8692306465089461	-0.2562981219623214	0.9915692014132318	0.8610154357877565	-0.2614371595773904	1.179251820216061	1.009031866468877	-0.3807109311071988	1.0139421799612	1.043288283083494	-0.4547989728026742	1.17562177897034	0.04024100524568975	-0.4410249929854489	1.429617511147412	0.05655080248192014	-0.4633739957653163	1.362421318255417	0.01701472191994471	-0.3710283597169232	1.176862051900066	0.7770177128196404	-0.3510533839407374	1.28540525853608	0.7354509782119455	-0.4116534641976498	1.229112380303131	0.6340033216294493	-0.3545886621766667	1.264830813399179	0.3410229400638232	-0.3753915627740818	1.307950540872291	0.2533284003475495	-0.440686092800555	1.277288611197115	0.1726460919052734	-0.3751058573019785	1.260826105699592	0.5327558705781008	-0.3656512341343232	1.269034503604213	0.5349391612934244	-0.4791021234391311	1.25496466619971	0.05999093033102321	-0.3813643810337871	1.265209122312775	0.06362110840057578	-0.4854741128064787	1.100380838531527	0.9083887716705199	-0.4270743506165688	1.269182021339977	0.5323438948308428	-0.4245726632623581	1.001054587604611	1.11991122439048	-0.2905799126364192	1.246821951989613	0.0488372966257507	-0.442078582929402	1.153128176336613	1.433229337218175	-0.2977054786433788	1.13676274932607	1.503317613164625	-0.6378308233616504	1.175801908783239	1.444512735827375	-0.6891812730966389	1.070170260768864	1.465042483577406	-0.6818175578223312	1.061152943583947	1.127452347017414	-0.7681911358204376	1.054305758125393	1.111001656435922	-0.6804702672992804	1.113313202893912	1.397806975654712	-0.7131864711996858	1.069717612787181	1.222095022866579	-0.7343911617097267	1.123713076266065	1.296314440103109	-0.7292152922825574	1.126042969896828	1.054729056313084	-0.7234007796896054	1.249345710452543	0.9354987697533983	-0.7331000414179032	1.202826453018533	0.8944120298230228	-0.7393784508070375	1.159013607421683	1.007264729126353	-0.6454195665628329	1.006852881980855	1.042669267791945	-0.5475244725185754	0.6235306139357103	0.2449657192341267	-0.5750730346123673	0.7818584346203417	0.04482857228176108	-0.5625533308486844	0.6968154046884344	0.0712535343476174	-0.6442573756835779	1.074857375314306	0.7655184117677649	-0.6790058986656129	1.155263082456281	0.6689667393588639	-0.6416630590044088	1.047333524702879	0.6160801988020712	-0.6893194456342558	0.8893139128830954	0.3758179793909665	-0.665618204668124	0.8619106671580002	0.2816261878354743	-0.6008880928801836	0.7724639808670266	0.2543517125054549	-0.65571463227549	1.024692000824996	0.5118589275288277	-0.6872039712402096	1.050275560107012	0.4961093155933703	-0.5774739386287767	0.6751557259068385	0.1955092049887329	-0.638470041975437	0.699641149752779	0.1844291650443069	-0.5373035452605388	1.088209301599051	0.9073259911944069	-0.5862737307954695	1.041277159313249	0.4973175304332751	-0.6311732889377599	1.062552380693822	1.113245025124167	-0.7188661305406996	0.6703483052304402	0.1906969577919492	-0.5765777756191516	1.129984181457004	1.453417513913951	-0.685987261596408	
